<svg id="svgObject" class="svg-view-box" viewBox="0 0 800 300" xmlns="http://www.w3.org/2000/svg">
          <!-- <clipPath id="splash-text" class="splash-text">
            <text x="10" y="140" class="name-size">Jacob Schatz</text>
            <text x="10" y="240">Developer</text>
            <text x="10" y="290">+ All Around Nice Guy</text>
          </clipPath> -->
          <g class="splash-background play" clip-path="url(#splash-text)" transform="translate(0,-41.428547)"
            style="display:inline">
            <path
              d="M934.9 46.956a141.099 102.705 0 0 1-141.098 102.705 141.099 102.705 0 0 1-141.1-102.705 141.099 102.705 0 0 1 141.1-102.704A141.099 102.705 0 0 1 934.9 46.956zM646.944 37.358a215.968 95.026 0 0 1-215.968 95.026 215.968 95.026 0 0 1-215.968-95.026 215.968 95.026 0 0 1 215.968-95.026 215.968 95.026 0 0 1 215.968 95.026zM213.088 36.398a42.234 92.146 0 0 1-42.233 92.146 42.234 92.146 0 0 1-42.234-92.146 42.234 92.146 0 0 1 42.234-92.146 42.234 92.146 0 0 1 42.233 92.146zM126.701 45.996a99.825 101.745 0 0 1-99.825 101.745A99.825 101.745 0 0 1-72.949 45.996 99.825 101.745 0 0 1 26.876-55.748a99.825 101.745 0 0 1 99.825 101.744zM304.275-181.49A102.705 137.874 90 0 0 442.149-78.785 102.705 137.874 90 0 0 580.022-181.49 102.705 137.874 90 0 0 442.15-284.194 102.705 137.874 90 0 0 304.275-181.49zM-128.484-168.052A95.026 211.031 90 0 0 82.548-73.026a95.026 211.031 90 0 0 211.031-95.026 95.026 211.031 90 0 0-211.031-95.026 95.026 211.031 90 0 0-211.032 95.026zM591.09-170.931a41.268 92.146 0 0 0 41.27 92.146 41.268 92.146 0 0 0 41.268-92.146 41.268 92.146 0 0 0-41.269-92.147 41.268 92.146 0 0 0-41.268 92.147zM687.022-167.092a97.543 101.745 0 0 0 97.543 101.745 97.543 101.745 0 0 0 97.544-101.745 97.543 101.745 0 0 0-97.544-101.745 97.543 101.745 0 0 0-97.543 101.745zM724.692 235.088a141.099 102.705 0 0 1-141.099 102.705 141.099 102.705 0 0 1-141.099-102.705 141.099 102.705 0 0 1 141.1-102.704 141.099 102.705 0 0 1 141.098 102.704zM359.946 240.847a215.968 95.026 0 0 1-215.967 95.026A215.968 95.026 0 0 1-71.99 240.847a215.968 95.026 0 0 1 215.968-95.025 215.968 95.026 0 0 1 215.967 95.025z" />
            <path
              d="M442.494 236.048a42.234 92.146 0 0 1-42.234 92.146 42.234 92.146 0 0 1-42.233-92.146 42.234 92.146 0 0 1 42.233-92.146 42.234 92.146 0 0 1 42.234 92.146zM918.583 249.486a99.825 101.745 0 0 1-99.825 101.745 99.825 101.745 0 0 1-99.825-101.745 99.825 101.745 0 0 1 99.825-101.745 99.825 101.745 0 0 1 99.825 101.745zM943.54 465.454a141.099 102.705 0 0 1-141.1 102.705 141.099 102.705 0 0 1-141.099-102.705 141.099 102.705 0 0 1 141.1-102.705 141.099 102.705 0 0 1 141.098 102.705zM655.582 455.855a215.968 95.026 0 0 1-215.968 95.026 215.968 95.026 0 0 1-215.967-95.026 215.968 95.026 0 0 1 215.967-95.026 215.968 95.026 0 0 1 215.968 95.026zM221.727 454.895a42.234 92.146 0 0 1-42.234 92.147 42.234 92.146 0 0 1-42.233-92.147 42.234 92.146 0 0 1 42.233-92.146 42.234 92.146 0 0 1 42.234 92.146zM135.34 464.494A99.825 101.745 0 0 1 35.515 566.24 99.825 101.745 0 0 1-64.31 464.494 99.825 101.745 0 0 1 35.515 362.75a99.825 101.745 0 0 1 99.825 101.745z" />
            <path
              d="M357.478 640.148a102.705 137.874 90 0 0 137.874 102.705 102.705 137.874 90 0 0 137.874-102.705 102.705 137.874 90 0 0-137.874-102.705 102.705 137.874 90 0 0-137.874 102.705zM-75.28 653.586a95.026 211.031 90 0 0 211.031 95.026 95.026 211.031 90 0 0 211.032-95.026A95.026 211.031 90 0 0 135.75 558.56 95.026 211.031 90 0 0-75.28 653.586zM644.294 650.706a41.268 92.146 0 0 0 41.269 92.147 41.268 92.146 0 0 0 41.268-92.147 41.268 92.146 0 0 0-41.268-92.146 41.268 92.146 0 0 0-41.269 92.146zM740.225 654.546A97.543 101.745 0 0 0 837.77 756.29a97.543 101.745 0 0 0 97.543-101.745A97.543 101.745 0 0 0 837.769 552.8a97.543 101.745 0 0 0-97.544 101.745z" />
            <path
              d="M307.566 834.039a102.705 137.874 90 0 0 137.873 102.705 102.705 137.874 90 0 0 137.874-102.705A102.705 137.874 90 0 0 445.44 731.334 102.705 137.874 90 0 0 307.566 834.04z" />
            <path
              d="M550.547 812.922a95.026 211.031 90 0 0 211.031 95.026 95.026 211.031 90 0 0 211.031-95.026 95.026 211.031 90 0 0-211.03-95.026 95.026 211.031 90 0 0-211.032 95.026zM206.6 788.926a41.268 92.146 0 0 0 41.268 92.146 41.268 92.146 0 0 0 41.268-92.146 41.268 92.146 0 0 0-41.268-92.147 41.268 92.146 0 0 0-41.268 92.147zM-8.463 825.4A97.543 101.745 0 0 0 89.08 927.145 97.543 101.745 0 0 0 186.624 825.4 97.543 101.745 0 0 0 89.08 723.655 97.543 101.745 0 0 0-8.463 825.4zM295.636-34.632A149.738 117.103 0 0 1 145.898 82.471 149.738 117.103 0 0 1-3.839-34.632a149.738 117.103 0 0 1 149.737-117.102A149.738 117.103 0 0 1 295.636-34.632zM760.207-45.19a141.099 100.785 0 0 1-141.1 100.785A141.099 100.785 0 0 1 478.01-45.19a141.099 100.785 0 0 1 141.099-100.785A141.099 100.785 0 0 1 760.207-45.19zM737.17 138.143a139.18 69.11 0 0 1-139.18 69.11 139.18 69.11 0 0 1-139.178-69.11 139.18 69.11 0 0 1 139.179-69.11 139.18 69.11 0 0 1 139.18 69.11z" />
            <path
              d="M355.147 158.3a143.979 77.748 0 0 1-143.978 77.748A143.979 77.748 0 0 1 67.19 158.3 143.979 77.748 0 0 1 211.169 80.55 143.979 77.748 0 0 1 355.147 158.3z" />
            <path
              d="M374.344 350.271A159.336 143.019 0 0 1 215.008 493.29 159.336 143.019 0 0 1 55.672 350.27a159.336 143.019 0 0 1 159.336-143.019 159.336 143.019 0 0 1 159.336 143.02zM746.769 342.592a150.698 137.26 0 0 1-150.698 137.26 150.698 137.26 0 0 1-150.697-137.26 150.698 137.26 0 0 1 150.697-137.26 150.698 137.26 0 0 1 150.698 137.26z" />
            <path
              d="M437.695 545.122a195.81 128.62 0 0 1-195.811 128.62 195.81 128.62 0 0 1-195.81-128.62 195.81 128.62 0 0 1 195.81-128.62 195.81 128.62 0 0 1 195.81 128.62zM810.12 591.195A158.376 170.855 0 0 1 651.742 762.05a158.376 170.855 0 0 1-158.376-170.855 158.376 170.855 0 0 1 158.376-170.854 158.376 170.855 0 0 1 158.376 170.854z" />
            <path
              d="M577.834 726.535a88.307 75.829 0 0 1-88.307 75.829 88.307 75.829 0 0 1-88.307-75.829 88.307 75.829 0 0 1 88.307-75.829 88.307 75.829 0 0 1 88.307 75.83z" />
            <path
              d="M437.695 715.017a92.146 123.822 0 0 1-92.146 123.821 92.146 123.822 0 0 1-92.147-123.821 92.146 123.822 0 0 1 92.147-123.822 92.146 123.822 0 0 1 92.146 123.822z" />
            <path
              d="M326.351 840.758a87.347 88.307 0 0 1-87.347 88.307 87.347 88.307 0 0 1-87.347-88.307 87.347 88.307 0 0 1 87.347-88.307 87.347 88.307 0 0 1 87.347 88.307z" />
            <path
              d="M280.278 739.973a98.865 91.186 0 0 1-98.865 91.186 98.865 91.186 0 0 1-98.865-91.186 98.865 91.186 0 0 1 98.865-91.186 98.865 91.186 0 0 1 98.865 91.186zM637.345 751.491a73.909 77.748 0 0 1-73.909 77.749 73.909 77.748 0 0 1-73.909-77.749 73.909 77.748 0 0 1 73.91-77.748 73.909 77.748 0 0 1 73.908 77.748zM502.965 363.71a89.267 73.909 0 0 1-89.267 73.908 89.267 73.909 0 0 1-89.266-73.909 89.267 73.909 0 0 1 89.266-73.909 89.267 73.909 0 0 1 89.267 73.91z" />
            <path
              d="M537.52 220.69a95.986 92.146 0 0 1-95.986 92.147 95.986 92.146 0 0 1-95.985-92.147 95.986 92.146 0 0 1 95.985-92.146 95.986 92.146 0 0 1 95.986 92.146z" />
            <path
              d="M426.177 173.657a83.508 95.026 0 0 1-83.508 95.026 83.508 95.026 0 0 1-83.508-95.026 83.508 95.026 0 0 1 83.508-95.025 83.508 95.026 0 0 1 83.508 95.025z" />
            <path
              d="M420.417 292.68a96.946 73.909 0 0 1-96.945 73.909 96.946 73.909 0 0 1-96.946-73.91 96.946 73.909 0 0 1 96.946-73.908 96.946 73.909 0 0 1 96.945 73.909zM88.307 332.034a80.628 99.825 0 0 1-80.628 99.825 80.628 99.825 0 0 1-80.628-99.825 80.628 99.825 0 0 1 80.628-99.825 80.628 99.825 0 0 1 80.628 99.825zM84.467 85.35a93.106 85.427 0 0 1-93.106 85.428 93.106 85.427 0 0 1-93.106-85.427A93.106 85.427 0 0 1-8.639-.077a93.106 85.427 0 0 1 93.106 85.428z" />
            <path
              d="M147.818 140.062a102.705 78.708 0 0 1-102.705 78.709A102.705 78.708 0 0 1-57.59 140.062 102.705 78.708 0 0 1 45.113 61.354a102.705 78.708 0 0 1 102.705 78.708z" />
            <path
              d="M309.074 91.11a147.818 39.354 0 0 1-147.818 39.354A147.818 39.354 0 0 1 13.438 91.11a147.818 39.354 0 0 1 147.818-39.354A147.818 39.354 0 0 1 309.074 91.11zM798.601 127.584a82.548 83.508 0 0 1-82.548 83.508 82.548 83.508 0 0 1-82.547-83.508 82.548 83.508 0 0 1 82.547-83.507 82.548 83.508 0 0 1 82.548 83.507zM554.797-92.223A81.588 84.467 0 0 1 473.21-7.756a81.588 84.467 0 0 1-81.587-84.467 81.588 84.467 0 0 1 81.587-84.467 81.588 84.467 0 0 1 81.588 84.467z" />
            <path
              d="M481.848-92.223a120.942 76.789 0 0 1-120.942 76.789 120.942 76.789 0 0 1-120.942-76.789 120.942 76.789 0 0 1 120.942-76.789 120.942 76.789 0 0 1 120.942 76.789z" />
            <path
              d="M460.731-195.888a134.38 82.548 0 0 1-134.38 82.548 134.38 82.548 0 0 1-134.38-82.548 134.38 82.548 0 0 1 134.38-82.547 134.38 82.548 0 0 1 134.38 82.547zM790.922-213.165a78.708 80.628 0 0 1-78.708 80.628 78.708 80.628 0 0 1-78.708-80.628 78.708 80.628 0 0 1 78.708-80.628 78.708 80.628 0 0 1 78.708 80.628z" />
            <path
              d="M739.09-190.128A127.661 103.665 0 0 1 611.429-86.464a127.661 103.665 0 0 1-127.661-103.664 127.661 103.665 0 0 1 127.66-103.665A127.661 103.665 0 0 1 739.09-190.128zM854.273-55.748a68.15 67.19 0 0 1-68.15 67.19 68.15 67.19 0 0 1-68.15-67.19 68.15 67.19 0 0 1 68.15-67.19 68.15 67.19 0 0 1 68.15 67.19zM825.477 116.066a123.822 98.865 0 0 1-123.822 98.865 123.822 98.865 0 0 1-123.821-98.865 123.822 98.865 0 0 1 123.821-98.865 123.822 98.865 0 0 1 123.822 98.865z" />
            <path
              d="M877.31 272.523a105.584 86.387 0 0 1-105.585 86.387 105.584 86.387 0 0 1-105.584-86.387 105.584 86.387 0 0 1 105.584-86.387 105.584 86.387 0 0 1 105.584 86.387z" />
            <path
              d="M898.426 394.425A116.143 100.785 0 0 1 782.283 495.21a116.143 100.785 0 0 1-116.142-100.785A116.143 100.785 0 0 1 782.283 293.64a116.143 100.785 0 0 1 116.143 100.785zM854.273 756.29a87.347 69.11 0 0 1-87.347 69.11 87.347 69.11 0 0 1-87.347-69.11 87.347 69.11 0 0 1 87.347-69.11 87.347 69.11 0 0 1 87.347 69.11zM105.584 567.199a73.909 75.829 0 0 1-73.909 75.828A73.909 75.829 0 0 1-42.234 567.2a73.909 75.829 0 0 1 73.91-75.829 73.909 75.829 0 0 1 73.908 75.829z" />
            <path
              d="M49.913 700.619a70.07 90.227 0 0 1-70.07 90.226 70.07 90.227 0 0 1-70.07-90.226 70.07 90.227 0 0 1 70.07-90.227 70.07 90.227 0 0 1 70.07 90.227zM637.345 857.076a61.43 52.792 0 0 1-61.43 52.792 61.43 52.792 0 0 1-61.432-52.792 61.43 52.792 0 0 1 61.431-52.793 61.43 52.792 0 0 1 61.431 52.793zM272.6-263.078a54.712 51.832 0 0 1-54.712 51.833 54.712 51.832 0 0 1-54.712-51.833 54.712 51.832 0 0 1 54.712-51.832 54.712 51.832 0 0 1 54.711 51.832z" />
            <path
              d="M176.614-240.041A107.504 51.832 0 0 1 69.11-188.209 107.504 51.832 0 0 1-38.394-240.04 107.504 51.832 0 0 1 69.11-291.873a107.504 51.832 0 0 1 107.504 51.832z" />
          </g>
        </svg>